<?xml version="1.0" encoding="UTF-8"?><svg id="Layer_1" xmlns="http://www.w3.org/2000/svg" viewBox="0 0 790.18 740.33"><defs><style>.cls-1{fill:#64ffda;}</style></defs><path class="cls-1" d="m395.45,0c-116.75,0-211.4,94.65-211.4,211.4,0,38.36,10.22,74.34,28.08,105.35l.79-.47,78.09-45.9c-4.16-7.14-16.85-29.58-15.72-59.38,1.99-52.4,46.44-119.84,119.84-119.84,66.19,0,119.84,53.65,119.84,119.84s-53.65,119.84-119.84,119.84l-.04,91.5v.44c.12,0,.23,0,.35,0,116.75,0,211.4-94.65,211.4-211.4S512.2,0,395.45,0Z"/><path class="cls-1" d="m762.33,633.7c57.89-101.39,22.62-230.51-78.77-288.4-33.32-19.02-69.62-27.98-105.42-27.85v.92s1.16,90.57,1.16,90.57c8.26-.07,34.05.03,59.36,15.79,44.52,27.7,81.05,99.75,44.66,163.49-32.81,57.48-106.01,77.47-163.49,44.66-57.48-32.82-77.47-106.01-44.66-163.49l-79.45-45.4-.38-.22c-.06.1-.12.2-.18.3-57.89,101.39-22.62,230.51,78.77,288.4,101.39,57.89,230.51,22.62,288.4-78.77Z"/><path class="cls-1" d="m28.7,635.18c58.7,100.92,188.11,135.14,289.03,76.44,33.16-19.29,59.12-46.21,76.95-77.25l-.8-.45-78.94-44.42c-4.08,7.18-17.1,29.44-43.42,43.44-46.29,24.63-126.94,20.11-163.84-43.33-33.28-57.21-13.88-130.57,43.33-163.84,57.21-33.28,130.57-13.88,163.84,43.33l79.11-45.98.38-.22c-.06-.1-.11-.2-.17-.3-58.7-100.92-188.11-135.14-289.03-76.44C4.22,404.86-30,534.26,28.7,635.18Z"/></svg>